<svg width="96" height="25" viewBox="0 0 96 25" fill="none" xmlns="http://www.w3.org/2000/svg">
<path d="M24.4892 12.2351C24.4892 6.03144 20.7963 1.25208 11.4086 1.25208H1.36526V23.2181H11.4086C20.7963 23.2181 24.4892 18.4388 24.4892 12.2351ZM17.6555 12.2351C17.6555 16.5714 14.998 18.1856 11.3051 18.1856H7.88828V6.28465H11.3051C14.998 6.28465 17.6555 7.89887 17.6555 12.2351Z" fill="white"/>
<path d="M26.0513 23.2181H45.0336V18.2172H32.5743V14.4508H43.515V9.70298H32.5743V6.253H44.723V1.25208H26.0513V23.2181Z" fill="white"/>
<path d="M67.1307 8.88008C67.1307 3.34107 63.2652 1.25208 57.2599 1.25208H46.8713V23.2181H53.3943V16.5081H57.2599C63.2652 16.5081 67.1307 14.419 67.1307 8.88008ZM60.3661 8.88008C60.3661 11.0324 59.2617 11.9186 56.6041 11.9186H53.3943V5.84153H56.6041C59.2617 5.84153 60.3661 6.72777 60.3661 8.88008Z" fill="white"/>
<path d="M67.8425 6.3796H75.4009V23.2181H81.9239V6.3796H89.4823V1.25208H67.8425V6.3796Z" fill="white"/>
<path d="M86.7719 20.1427C86.7719 22.1305 88.5265 23.7397 90.6943 23.7397C92.8617 23.7397 94.6338 22.1305 94.6338 20.1427C94.6338 18.1549 92.8617 16.53 90.6943 16.53C88.5265 16.53 86.7719 18.1549 86.7719 20.1427ZM87.5288 20.1427C87.5288 18.502 88.9393 17.161 90.6943 17.161C92.4485 17.161 93.8766 18.502 93.8766 20.1427C93.8766 21.7834 92.4485 23.1086 90.6943 23.1086C88.9393 23.1086 87.5288 21.7834 87.5288 20.1427ZM88.8533 21.9254H90.0916V20.6949H90.7976L91.5368 21.9254H92.8787L91.9841 20.474C92.3973 20.3163 92.7063 19.8903 92.7063 19.417C92.7063 18.5809 92.1216 18.1865 91.1236 18.1865H88.8533V21.9254ZM91.4506 19.4328C91.4506 19.7325 91.2449 19.8588 90.8488 19.8588H90.0916V19.0699H90.8488C91.2449 19.0699 91.4506 19.1646 91.4506 19.4328Z" fill="white"/>
</svg>
