<svg width="189" height="25" viewBox="0 0 189 25" fill="none" xmlns="http://www.w3.org/2000/svg">
<path d="M22.4484 12.2351C22.4484 6.03144 19.0632 1.25208 10.4579 1.25208H1.25146V23.2181H10.4579C19.0632 23.2181 22.4484 18.4388 22.4484 12.2351ZM16.1842 12.2351C16.1842 16.5714 13.7482 18.1856 10.363 18.1856H7.2309V6.28465H10.363C13.7482 6.28465 16.1842 7.89887 16.1842 12.2351Z" fill="white"/>
<path d="M23.8804 23.2181H41.2808V18.2172H29.8598V14.4508H39.8887V9.70298H29.8598V6.253H40.9961V1.25208H23.8804V23.2181Z" fill="white"/>
<path d="M61.5364 8.88008C61.5364 3.34107 57.993 1.25208 52.4882 1.25208H42.9653V23.2181H48.9448V16.5081H52.4882C57.993 16.5081 61.5364 14.419 61.5364 8.88008ZM55.3356 8.88008C55.3356 11.0324 54.3232 11.9186 51.887 11.9186H48.9448V5.84153H51.887C54.3232 5.84153 55.3356 6.72777 55.3356 8.88008Z" fill="white"/>
<path d="M62.189 6.3796H69.1175V23.2181H75.0969V6.3796H82.0254V1.25208H62.189V6.3796Z" fill="white"/>
<path d="M79.5408 20.1428C79.5408 22.1306 81.1492 23.7397 83.1364 23.7397C85.1231 23.7397 86.7476 22.1306 86.7476 20.1428C86.7476 18.155 85.1231 16.53 83.1364 16.53C81.1492 16.53 79.5408 18.155 79.5408 20.1428ZM80.2346 20.1428C80.2346 18.5021 81.5276 17.1611 83.1364 17.1611C84.7444 17.1611 86.0535 18.5021 86.0535 20.1428C86.0535 21.7835 84.7444 23.1087 83.1364 23.1087C81.5276 23.1087 80.2346 21.7835 80.2346 20.1428ZM81.4488 21.9255H82.5839V20.6949H83.231L83.9087 21.9255H85.1388L84.3187 20.4741C84.6974 20.3164 84.9807 19.8904 84.9807 19.4171C84.9807 18.5809 84.4447 18.1865 83.5299 18.1865H81.4488V21.9255ZM83.8296 19.4328C83.8296 19.7326 83.6411 19.8589 83.278 19.8589H82.5839V19.07H83.278C83.6411 19.07 83.8296 19.1647 83.8296 19.4328Z" fill="white"/>
<path d="M135.307 10.5156H132.012V22H126.666V10.5156H124.615V7.89062L126.775 6.57812V6.31836C126.775 4.97852 126.953 3.88932 127.309 3.05078C127.664 2.20312 128.229 1.57878 129.004 1.17773C129.779 0.776693 130.79 0.576172 132.039 0.576172C132.841 0.576172 133.566 0.639974 134.213 0.767578C134.869 0.895182 135.553 1.07747 136.264 1.31445L135.115 4.77344C134.851 4.70052 134.555 4.63672 134.227 4.58203C133.908 4.52734 133.561 4.5 133.188 4.5C132.777 4.5 132.477 4.6276 132.285 4.88281C132.103 5.12891 132.012 5.53451 132.012 6.09961V6.50977H135.307V10.5156ZM142.225 22.2734C140.63 22.2734 139.317 21.5944 138.287 20.2363C137.257 18.8783 136.742 16.8913 136.742 14.2754C136.742 11.6322 137.271 9.63151 138.328 8.27344C139.385 6.91536 140.753 6.23633 142.43 6.23633C143.122 6.23633 143.719 6.33659 144.221 6.53711C144.722 6.73763 145.155 7.01107 145.52 7.35742C145.893 7.69466 146.217 8.07747 146.49 8.50586H146.6C146.536 8.11393 146.477 7.57617 146.422 6.89258C146.367 6.19987 146.34 5.52539 146.34 4.86914V0.726562H151.727V22H147.693L146.545 20.0449H146.34C146.094 20.4551 145.784 20.8288 145.41 21.166C145.046 21.5033 144.599 21.7721 144.07 21.9727C143.551 22.1732 142.936 22.2734 142.225 22.2734ZM144.412 18.0488C145.269 18.0488 145.87 17.7799 146.217 17.2422C146.572 16.6953 146.764 15.8659 146.791 14.7539V14.3301C146.791 13.1087 146.618 12.1745 146.271 11.5273C145.934 10.8711 145.296 10.543 144.357 10.543C143.719 10.543 143.191 10.8529 142.771 11.4727C142.352 12.0924 142.143 13.054 142.143 14.3574C142.143 15.6426 142.352 16.5814 142.771 17.1738C143.2 17.7572 143.747 18.0488 144.412 18.0488ZM165.125 6.23633C166.72 6.23633 168.023 6.6875 169.035 7.58984C170.047 8.49219 170.553 9.93685 170.553 11.9238V22H165.207V13.5508C165.207 12.5208 165.057 11.7461 164.756 11.2266C164.464 10.6979 163.99 10.4336 163.334 10.4336C162.322 10.4336 161.643 10.8483 161.297 11.6777C160.951 12.498 160.777 13.6784 160.777 15.2188V22H155.432V6.50977H159.465L160.189 8.56055H160.395C160.723 8.06836 161.115 7.64909 161.57 7.30273C162.026 6.95638 162.55 6.69206 163.143 6.50977C163.735 6.32747 164.396 6.23633 165.125 6.23633ZM179.002 22.2734C177.407 22.2734 176.094 21.5944 175.064 20.2363C174.035 18.8783 173.52 16.8913 173.52 14.2754C173.52 11.6322 174.048 9.63151 175.105 8.27344C176.163 6.91536 177.53 6.23633 179.207 6.23633C179.9 6.23633 180.497 6.33659 180.998 6.53711C181.499 6.73763 181.932 7.01107 182.297 7.35742C182.671 7.69466 182.994 8.07747 183.268 8.50586H183.377C183.313 8.11393 183.254 7.57617 183.199 6.89258C183.145 6.19987 183.117 5.52539 183.117 4.86914V0.726562H188.504V22H184.471L183.322 20.0449H183.117C182.871 20.4551 182.561 20.8288 182.188 21.166C181.823 21.5033 181.376 21.7721 180.848 21.9727C180.328 22.1732 179.713 22.2734 179.002 22.2734ZM181.189 18.0488C182.046 18.0488 182.648 17.7799 182.994 17.2422C183.35 16.6953 183.541 15.8659 183.568 14.7539V14.3301C183.568 13.1087 183.395 12.1745 183.049 11.5273C182.712 10.8711 182.074 10.543 181.135 10.543C180.497 10.543 179.968 10.8529 179.549 11.4727C179.13 12.0924 178.92 13.054 178.92 14.3574C178.92 15.6426 179.13 16.5814 179.549 17.1738C179.977 17.7572 180.524 18.0488 181.189 18.0488Z" fill="#66E5BF"/>
<path d="M100.4 20L99 18.6L104.6 13L99 7.4L100.4 6L106 11.6L111.6 6L113 7.4L107.4 13L113 18.6L111.6 20L106 14.4L100.4 20Z" fill="white"/>
</svg>
