<svg width="88" height="25" viewBox="0 0 88 25" fill="none" xmlns="http://www.w3.org/2000/svg">
<path d="M22.4484 12.2351C22.4484 6.03144 19.0632 1.25208 10.4579 1.25208H1.25146V23.2181H10.4579C19.0632 23.2181 22.4484 18.4388 22.4484 12.2351ZM16.1842 12.2351C16.1842 16.5714 13.7482 18.1856 10.363 18.1856H7.2309V6.28465H10.363C13.7482 6.28465 16.1842 7.89887 16.1842 12.2351Z" fill="white"/>
<path d="M23.8804 23.2181H41.2808V18.2172H29.8598V14.4508H39.8887V9.70298H29.8598V6.253H40.9961V1.25208H23.8804V23.2181Z" fill="white"/>
<path d="M61.5364 8.88008C61.5364 3.34107 57.993 1.25208 52.4882 1.25208H42.9653V23.2181H48.9448V16.5081H52.4882C57.993 16.5081 61.5364 14.419 61.5364 8.88008ZM55.3356 8.88008C55.3356 11.0324 54.3232 11.9186 51.887 11.9186H48.9448V5.84153H51.887C54.3232 5.84153 55.3356 6.72777 55.3356 8.88008Z" fill="white"/>
<path d="M62.189 6.3796H69.1175V23.2181H75.0969V6.3796H82.0254V1.25208H62.189V6.3796Z" fill="white"/>
<path d="M79.5408 20.1428C79.5408 22.1306 81.1492 23.7397 83.1364 23.7397C85.1231 23.7397 86.7476 22.1306 86.7476 20.1428C86.7476 18.155 85.1231 16.53 83.1364 16.53C81.1492 16.53 79.5408 18.155 79.5408 20.1428ZM80.2346 20.1428C80.2346 18.5021 81.5276 17.1611 83.1364 17.1611C84.7444 17.1611 86.0535 18.5021 86.0535 20.1428C86.0535 21.7835 84.7444 23.1087 83.1364 23.1087C81.5276 23.1087 80.2346 21.7835 80.2346 20.1428ZM81.4488 21.9255H82.5839V20.6949H83.231L83.9087 21.9255H85.1388L84.3187 20.4741C84.6974 20.3164 84.9807 19.8904 84.9807 19.4171C84.9807 18.5809 84.4447 18.1865 83.5299 18.1865H81.4488V21.9255ZM83.8296 19.4328C83.8296 19.7326 83.6411 19.8589 83.278 19.8589H82.5839V19.07H83.278C83.6411 19.07 83.8296 19.1647 83.8296 19.4328Z" fill="white"/>
</svg>
