<svg width="65" height="23" viewBox="0 0 65 23" fill="none" xmlns="http://www.w3.org/2000/svg">
<path d="M11.3066 10.5156H8.01172V22H2.66602V10.5156H0.615234V7.89062L2.77539 6.57812V6.31836C2.77539 4.97852 2.95312 3.88932 3.30859 3.05078C3.66406 2.20312 4.22917 1.57878 5.00391 1.17773C5.77865 0.776693 6.79036 0.576172 8.03906 0.576172C8.84115 0.576172 9.56576 0.639974 10.2129 0.767578C10.8691 0.895182 11.5527 1.07747 12.2637 1.31445L11.1152 4.77344C10.8509 4.70052 10.5547 4.63672 10.2266 4.58203C9.90755 4.52734 9.5612 4.5 9.1875 4.5C8.77734 4.5 8.47656 4.6276 8.28516 4.88281C8.10286 5.12891 8.01172 5.53451 8.01172 6.09961V6.50977H11.3066V10.5156ZM18.2246 22.2734C16.6296 22.2734 15.3171 21.5944 14.2871 20.2363C13.2572 18.8783 12.7422 16.8913 12.7422 14.2754C12.7422 11.6322 13.2708 9.63151 14.3281 8.27344C15.3854 6.91536 16.7526 6.23633 18.4297 6.23633C19.1224 6.23633 19.7194 6.33659 20.2207 6.53711C20.722 6.73763 21.1549 7.01107 21.5195 7.35742C21.8932 7.69466 22.2168 8.07747 22.4902 8.50586H22.5996C22.5358 8.11393 22.4766 7.57617 22.4219 6.89258C22.3672 6.19987 22.3398 5.52539 22.3398 4.86914V0.726562H27.7266V22H23.6934L22.5449 20.0449H22.3398C22.0938 20.4551 21.7839 20.8288 21.4102 21.166C21.0456 21.5033 20.599 21.7721 20.0703 21.9727C19.5508 22.1732 18.9355 22.2734 18.2246 22.2734ZM20.4121 18.0488C21.2689 18.0488 21.8704 17.7799 22.2168 17.2422C22.5723 16.6953 22.7637 15.8659 22.791 14.7539V14.3301C22.791 13.1087 22.6178 12.1745 22.2715 11.5273C21.9342 10.8711 21.2962 10.543 20.3574 10.543C19.7194 10.543 19.1908 10.8529 18.7715 11.4727C18.3522 12.0924 18.1426 13.054 18.1426 14.3574C18.1426 15.6426 18.3522 16.5814 18.7715 17.1738C19.1999 17.7572 19.7467 18.0488 20.4121 18.0488ZM41.125 6.23633C42.7201 6.23633 44.0234 6.6875 45.0352 7.58984C46.0469 8.49219 46.5527 9.93685 46.5527 11.9238V22H41.207V13.5508C41.207 12.5208 41.0566 11.7461 40.7559 11.2266C40.4642 10.6979 39.9902 10.4336 39.334 10.4336C38.3223 10.4336 37.6432 10.8483 37.2969 11.6777C36.9505 12.498 36.7773 13.6784 36.7773 15.2188V22H31.4316V6.50977H35.4648L36.1895 8.56055H36.3945C36.7227 8.06836 37.1146 7.64909 37.5703 7.30273C38.026 6.95638 38.5501 6.69206 39.1426 6.50977C39.735 6.32747 40.3958 6.23633 41.125 6.23633ZM55.002 22.2734C53.4069 22.2734 52.0944 21.5944 51.0645 20.2363C50.0345 18.8783 49.5195 16.8913 49.5195 14.2754C49.5195 11.6322 50.0482 9.63151 51.1055 8.27344C52.1628 6.91536 53.5299 6.23633 55.207 6.23633C55.8997 6.23633 56.4967 6.33659 56.998 6.53711C57.4993 6.73763 57.9323 7.01107 58.2969 7.35742C58.6706 7.69466 58.9941 8.07747 59.2676 8.50586H59.377C59.3132 8.11393 59.2539 7.57617 59.1992 6.89258C59.1445 6.19987 59.1172 5.52539 59.1172 4.86914V0.726562H64.5039V22H60.4707L59.3223 20.0449H59.1172C58.8711 20.4551 58.5612 20.8288 58.1875 21.166C57.8229 21.5033 57.3763 21.7721 56.8477 21.9727C56.3281 22.1732 55.7129 22.2734 55.002 22.2734ZM57.1895 18.0488C58.0462 18.0488 58.6478 17.7799 58.9941 17.2422C59.3496 16.6953 59.541 15.8659 59.5684 14.7539V14.3301C59.5684 13.1087 59.3952 12.1745 59.0488 11.5273C58.7116 10.8711 58.0736 10.543 57.1348 10.543C56.4967 10.543 55.9681 10.8529 55.5488 11.4727C55.1296 12.0924 54.9199 13.054 54.9199 14.3574C54.9199 15.6426 55.1296 16.5814 55.5488 17.1738C55.9772 17.7572 56.5241 18.0488 57.1895 18.0488Z" fill="#66E5BF"/>
</svg>
